# xmcd
#
# Track frame offsets:
#	150
#	15638
#	31262
#	47117
#	61450
#	74132
#	88532
#	101671
#	116956
#	136488
#	147175
#	160237
#	173971
#	186672
#	200902
#	215153
#	227249
#	240889
#
# Disc length: 3473 seconds
#
# Revision: 0
# Processed by: cddbd v1.5.2PL0 Copyright (c) Steve Scherf et al.
# Submitted via: EasyCDDAExtractor 16.0.8.2
#
DISCID=190d8f12
DTITLE=Συλλογικός δίσκος - Τα 45άρια του τζουκ μποξ 1
DYEAR=2014
DGENRE=Ποικίλη
TTITLE0=Μπέλλου Σωτηρία - Σεννεφιασμένη Κυριακή [Β. Τστσάνης]
TTITLE1=Καζαντζίδης Στέλιος - Πάρε τα χνάρια μου [Θ. Δερβενιώτης-Κ. Βίρβος]
TTITLE2=Σακελλαρίου Ρίτα - Τα λιμάνια [Β. Τσιτσάνης]
TTITLE3=Μοσχολιού Βίκυ - Ο τραμπαρίφας [Μ.Σουγιούλ-Α.Σακελλάριος/Χ.Γιαν)λος]
TTITLE4=Χρηστάκης - Να χαρείς τα μάτια σου καλέ [Σ. Ζαφειρίου-Γ. Γαβαλάς]
TTITLE5=Πουλόπουλος Γιάννης - Φραγκοσυριανή [Μ. Βαμβακάρης]
TTITLE6=Λίντα Μαίρη - Η σκούνα [Μ. Χιώτης]
TTITLE7=Περπινιάδης Βαγγέλης - Φοβάμαι μη σε χάσω(Πώς θα περ η βρ)[Γ.Παπαϊωάνν
TTITLE7=ου-Α.Αγγελόπουλος]
TTITLE8=Αγγελόπουλος Μανώλης - Τα μαύρα μάτια σου [αγν., διασκ. Μ.Αγγελόπουλος
TTITLE8=Μ.Μπιζάνη]
TTITLE9=Γαβαλάς Πάνος - Σήκω πάνω, κάτσε κάτω [Χ.Νικολόπουλος-Γ.Βασιλόπουλος/Β
TTITLE9=Ατραΐδης]
TTITLE10=Μπέλλου Σωτηρία - Λίγα ψίχουλα αγάπης σού γυρεύω [Σ. Τζουανάκος-Κ. Βί
TTITLE10=ρβος]
TTITLE11=Ζαγοραίος Σπύρος - Το πιτσιρικάκι [Γ. Ροβερτάκης-Αργ. Νικολέσκο]
TTITLE12=Αλεξάνδρα - Θα σπάσω κούπες [διασκ. Χρ. Νικολόπουλος]
TTITLE13=Διονυσίου Άγγελος - Η αφιλότιμη [Γ. Χατζηνάσιος-Τ. Οικονόμου]
TTITLE14=Κύπριος Στράτος - Ρολόϊ κομπολόϊ [Άκης Πάνου]
TTITLE15=Ψαριανός Δημήτρης - Μιά παλιά ιστορία [Σ. Καζαντζίδης-Κ. Βίρβος]
TTITLE16=Πουλόπουλος Γιάννης - Μη μού θυμώνεις μάτια μου [Σ. Κουγιουμτζής]
TTITLE17=Μοσχολιού Βίκυ - Το μονοπάτι [Γ.  Μουζάκης-Γ. κ Χ. Γιαννακόπουλοι/Α. 
TTITLE17=Σακελλάριος]
EXTD=
EXTT0=
EXTT1=
EXTT2=
EXTT3=
EXTT4=
EXTT5=
EXTT6=
EXTT7=
EXTT8=
EXTT9=
EXTT10=
EXTT11=
EXTT12=
EXTT13=
EXTT14=
EXTT15=
EXTT16=
EXTT17=
PLAYORDER=
